REM MD5 eaa31fc9c731235194a17ab2b6355346
FILE "Note, The (Europe) (En,Fr,De,Es,It).bin" BINARY
  TRACK 01 MODE2/2352
    INDEX 01 00:00:00
  TRACK 02 AUDIO
    INDEX 00 48:31:41
    INDEX 01 48:33:41
  TRACK 03 AUDIO
    INDEX 00 50:09:17
    INDEX 01 50:11:17
REM LEADOUT 53:29:74
